# Blender v2.74 (sub 0) OBJ File: 'ingotstack.blend'
# www.blender.org
mtllib ingotstack.mtl
o Cube.001
v 3.168847 -0.525238 1.652979
v -3.127120 -0.525238 1.639861
v -3.112364 -0.525237 -1.633250
v 3.020261 0.474763 -1.494403
v -2.979663 0.474763 -1.494403
v -2.979664 0.474762 1.505658
v -2.979667 -0.525237 -1.771874
v 3.020334 -0.525237 -1.771874
v 3.020263 0.474762 1.505658
v 3.329512 -0.525238 1.505629
v 3.329514 -0.525237 -1.494371
v 3.020332 -0.525238 1.771874
v 3.185184 -0.525237 -1.622748
v -3.256241 -0.525237 -1.494371
v -2.979668 -0.525238 1.771874
v -3.256242 -0.525238 1.505629
v 3.003599 -0.593132 -1.555611
v -3.292368 -0.593132 -1.568729
v -3.277612 -0.593132 -4.841840
v 2.855013 0.406869 -4.702993
v -3.144911 0.406869 -4.702993
v -3.144912 0.406868 -1.702932
v -3.144915 -0.593132 -4.980464
v 2.855086 -0.593132 -4.980464
v 2.855015 0.406868 -1.702932
v 3.164264 -0.593132 -1.702961
v 3.164266 -0.593132 -4.702961
v 2.855084 -0.593132 -1.436716
v 3.019936 -0.593132 -4.831338
v -3.421489 -0.593132 -4.702961
v -3.144916 -0.593132 -1.436716
v -3.421490 -0.593132 -1.702961
v 3.213297 -0.490039 4.747185
v -3.082670 -0.490039 4.734066
v -3.067914 -0.490038 1.460955
v 3.064711 0.509962 1.599802
v -2.935213 0.509962 1.599802
v -2.935214 0.509961 4.599863
v -2.935217 -0.490038 1.322331
v 3.064784 -0.490038 1.322331
v 3.064713 0.509961 4.599863
v 3.373962 -0.490039 4.599834
v 3.373964 -0.490039 1.599834
v 3.064782 -0.490039 4.866079
v 3.229634 -0.490038 1.471457
v -3.211791 -0.490039 1.599834
v -2.935218 -0.490039 4.866079
v -3.211792 -0.490039 4.599834
v 3.008287 0.490451 3.659121
v -3.287680 0.490451 3.646002
v -3.272924 0.490451 0.372891
v 2.859701 1.490451 0.511738
v -3.140223 1.490451 0.511738
v -3.140224 1.490451 3.511799
v -3.140227 0.490451 0.234267
v 2.859774 0.490451 0.234267
v 2.859703 1.490451 3.511799
v 3.168952 0.490451 3.511770
v 3.168954 0.490451 0.511770
v 2.859772 0.490451 3.778015
v 3.024624 0.490451 0.383393
v -3.416801 0.490451 0.511770
v -3.140228 0.490451 3.778015
v -3.416802 0.490451 3.511770
v 3.168655 0.587303 0.108620
v -3.127311 0.587303 0.095501
v -3.112556 0.587304 -3.177609
v 3.020069 1.587304 -3.038763
v -2.979855 1.587304 -3.038763
v -2.979856 1.587303 -0.038702
v -2.979859 0.587304 -3.316234
v 3.020143 0.587304 -3.316234
v 3.020072 1.587303 -0.038702
v 3.329320 0.587303 -0.038730
v 3.329322 0.587304 -3.038731
v 3.020141 0.587303 0.227515
v 3.184992 0.587304 -3.167108
v -3.256433 0.587304 -3.038731
v -2.979860 0.587303 0.227515
v -3.256433 0.587303 -0.038730
v 3.012049 1.664677 2.047939
v -3.283917 1.664677 2.034820
v -3.269162 1.664678 -1.238291
v 2.863463 2.664678 -1.099444
v -3.136461 2.664678 -1.099444
v -3.136462 2.664677 1.900617
v -3.136465 1.664678 -1.376915
v 2.863536 1.664678 -1.376915
v 2.863465 2.664677 1.900617
v 3.172714 1.664677 1.900588
v 3.172716 1.664678 -1.099412
v 2.863534 1.664677 2.166833
v 3.028386 1.664678 -1.227789
v -3.413039 1.664678 -1.099412
v -3.136466 1.664677 2.166833
v -3.413040 1.664677 1.900588
vt 0.008641 0.017702
vt 0.347249 0.019655
vt 0.346456 0.506988
vt 1.000000 0.949306
vt 0.677313 0.949306
vt 0.677313 0.502628
vt 0.339319 0.527628
vt 0.016628 0.527628
vt 0.677313 0.970288
vt 0.354194 0.970304
vt 0.354194 0.549248
vt 0.354638 0.986998
vt 0.355048 1.000000
vt 0.322687 0.527628
vt 0.322691 0.976204
vt 0.000000 0.976204
vt 0.007762 0.505425
vt 0.000000 0.486311
vt 0.000000 0.039641
vt 0.354194 0.045531
vt 0.676876 0.022664
vt 0.677227 0.045616
vt 0.016628 0.000000
vt 0.999914 0.448425
vt 0.677227 0.448425
vt 0.677227 0.000000
vt 0.677227 0.471121
vt 0.354194 0.471045
vt 0.676551 0.000000
vt 0.354194 0.039641
vt 0.677313 0.549224
vt 0.354592 0.527649
vt 0.355048 0.502628
vt 0.676912 0.487239
vt 0.676551 0.502628
vt 1.000000 0.502628
vt 0.000000 0.527628
vt 0.339319 0.000000
vt 0.999918 0.000000
vt 0.354194 0.486311
vn -0.000000 -1.000000 -0.000000
vn 0.000000 1.000000 0.000000
vn 0.955400 0.295400 0.000000
vn 0.611900 0.203500 0.764300
vn 0.000000 0.267400 -0.963600
vn -0.682000 0.188600 -0.706600
vn 0.661600 0.204600 0.721400
vn 0.000000 0.257300 0.966300
vn -0.963800 0.266600 -0.000000
vn -0.709400 0.188400 -0.679100
vn 0.657100 0.201600 -0.726400
vn -0.706800 0.195500 0.679900
vn -0.654300 0.194600 0.730800
vn 0.651000 0.201300 -0.731900
usemtl Material.001
s off
f 1/1/1 2/2/1 3/3/1
f 4/4/2 5/5/2 6/6/2
f 3/3/1 7/7/1 8/8/1
f 9/9/3 10/10/3 11/11/3
f 1/12/4 9/9/4 12/13/4
f 4/14/5 8/15/5 7/16/5
f 13/17/1 11/18/1 10/19/1
f 5/20/6 3/21/6 14/22/6
f 9/9/7 1/12/7 10/10/7
f 2/2/1 1/1/1 12/23/1
f 9/24/8 6/25/8 15/26/8
f 14/22/9 16/27/9 6/28/9
f 3/21/10 5/20/10 7/29/10
f 3/3/1 2/2/1 16/30/1
f 4/31/11 13/32/11 8/33/11
f 2/34/12 6/28/12 16/27/12
f 6/28/13 2/34/13 15/35/13
f 13/32/14 4/31/14 11/11/14
f 13/17/1 1/1/1 3/3/1
f 9/36/2 4/4/2 6/6/2
f 13/17/1 3/3/1 8/8/1
f 4/31/3 9/9/3 11/11/3
f 5/37/5 4/14/5 7/16/5
f 1/1/1 13/17/1 10/19/1
f 15/38/1 2/2/1 12/23/1
f 12/39/8 9/24/8 15/26/8
f 5/20/9 14/22/9 6/28/9
f 14/40/1 3/3/1 16/30/1
f 17/1/1 18/2/1 19/3/1
f 20/4/2 21/5/2 22/6/2
f 19/3/1 23/7/1 24/8/1
f 25/9/3 26/10/3 27/11/3
f 17/12/4 25/9/4 28/13/4
f 20/14/5 24/15/5 23/16/5
f 29/17/1 27/18/1 26/19/1
f 21/20/6 19/21/6 30/22/6
f 25/9/7 17/12/7 26/10/7
f 18/2/1 17/1/1 28/23/1
f 25/24/8 22/25/8 31/26/8
f 30/22/9 32/27/9 22/28/9
f 19/21/10 21/20/10 23/29/10
f 19/3/1 18/2/1 32/30/1
f 20/31/11 29/32/11 24/33/11
f 18/34/12 22/28/12 32/27/12
f 22/28/13 18/34/13 31/35/13
f 29/32/14 20/31/14 27/11/14
f 29/17/1 17/1/1 19/3/1
f 25/36/2 20/4/2 22/6/2
f 29/17/1 19/3/1 24/8/1
f 20/31/3 25/9/3 27/11/3
f 21/37/5 20/14/5 23/16/5
f 17/1/1 29/17/1 26/19/1
f 31/38/1 18/2/1 28/23/1
f 28/39/8 25/24/8 31/26/8
f 21/20/9 30/22/9 22/28/9
f 30/40/1 19/3/1 32/30/1
f 33/1/1 34/2/1 35/3/1
f 36/4/2 37/5/2 38/6/2
f 35/3/1 39/7/1 40/8/1
f 41/9/3 42/10/3 43/11/3
f 33/12/4 41/9/4 44/13/4
f 36/14/5 40/15/5 39/16/5
f 45/17/1 43/18/1 42/19/1
f 37/20/6 35/21/6 46/22/6
f 41/9/7 33/12/7 42/10/7
f 34/2/1 33/1/1 44/23/1
f 41/24/8 38/25/8 47/26/8
f 46/22/9 48/27/9 38/28/9
f 35/21/10 37/20/10 39/29/10
f 35/3/1 34/2/1 48/30/1
f 36/31/11 45/32/11 40/33/11
f 34/34/12 38/28/12 48/27/12
f 38/28/13 34/34/13 47/35/13
f 45/32/14 36/31/14 43/11/14
f 45/17/1 33/1/1 35/3/1
f 41/36/2 36/4/2 38/6/2
f 45/17/1 35/3/1 40/8/1
f 36/31/3 41/9/3 43/11/3
f 37/37/5 36/14/5 39/16/5
f 33/1/1 45/17/1 42/19/1
f 47/38/1 34/2/1 44/23/1
f 44/39/8 41/24/8 47/26/8
f 37/20/9 46/22/9 38/28/9
f 46/40/1 35/3/1 48/30/1
f 49/1/1 50/2/1 51/3/1
f 52/4/2 53/5/2 54/6/2
f 51/3/1 55/7/1 56/8/1
f 57/9/3 58/10/3 59/11/3
f 49/12/4 57/9/4 60/13/4
f 52/14/5 56/15/5 55/16/5
f 61/17/1 59/18/1 58/19/1
f 53/20/6 51/21/6 62/22/6
f 57/9/7 49/12/7 58/10/7
f 50/2/1 49/1/1 60/23/1
f 57/24/8 54/25/8 63/26/8
f 62/22/9 64/27/9 54/28/9
f 51/21/10 53/20/10 55/29/10
f 51/3/1 50/2/1 64/30/1
f 52/31/11 61/32/11 56/33/11
f 50/34/12 54/28/12 64/27/12
f 54/28/13 50/34/13 63/35/13
f 61/32/14 52/31/14 59/11/14
f 61/17/1 49/1/1 51/3/1
f 57/36/2 52/4/2 54/6/2
f 61/17/1 51/3/1 56/8/1
f 52/31/3 57/9/3 59/11/3
f 53/37/5 52/14/5 55/16/5
f 49/1/1 61/17/1 58/19/1
f 63/38/1 50/2/1 60/23/1
f 60/39/8 57/24/8 63/26/8
f 53/20/9 62/22/9 54/28/9
f 62/40/1 51/3/1 64/30/1
f 65/1/1 66/2/1 67/3/1
f 68/4/2 69/5/2 70/6/2
f 67/3/1 71/7/1 72/8/1
f 73/9/3 74/10/3 75/11/3
f 65/12/4 73/9/4 76/13/4
f 68/14/5 72/15/5 71/16/5
f 77/17/1 75/18/1 74/19/1
f 69/20/6 67/21/6 78/22/6
f 73/9/7 65/12/7 74/10/7
f 66/2/1 65/1/1 76/23/1
f 73/24/8 70/25/8 79/26/8
f 78/22/9 80/27/9 70/28/9
f 67/21/10 69/20/10 71/29/10
f 67/3/1 66/2/1 80/30/1
f 68/31/11 77/32/11 72/33/11
f 66/34/12 70/28/12 80/27/12
f 70/28/13 66/34/13 79/35/13
f 77/32/14 68/31/14 75/11/14
f 77/17/1 65/1/1 67/3/1
f 73/36/2 68/4/2 70/6/2
f 77/17/1 67/3/1 72/8/1
f 68/31/3 73/9/3 75/11/3
f 69/37/5 68/14/5 71/16/5
f 65/1/1 77/17/1 74/19/1
f 79/38/1 66/2/1 76/23/1
f 76/39/8 73/24/8 79/26/8
f 69/20/9 78/22/9 70/28/9
f 78/40/1 67/3/1 80/30/1
f 81/1/1 82/2/1 83/3/1
f 84/4/2 85/5/2 86/6/2
f 83/3/1 87/7/1 88/8/1
f 89/9/3 90/10/3 91/11/3
f 81/12/4 89/9/4 92/13/4
f 84/14/5 88/15/5 87/16/5
f 93/17/1 91/18/1 90/19/1
f 85/20/6 83/21/6 94/22/6
f 89/9/7 81/12/7 90/10/7
f 82/2/1 81/1/1 92/23/1
f 89/24/8 86/25/8 95/26/8
f 94/22/9 96/27/9 86/28/9
f 83/21/10 85/20/10 87/29/10
f 83/3/1 82/2/1 96/30/1
f 84/31/11 93/32/11 88/33/11
f 82/34/12 86/28/12 96/27/12
f 86/28/13 82/34/13 95/35/13
f 93/32/14 84/31/14 91/11/14
f 93/17/1 81/1/1 83/3/1
f 89/36/2 84/4/2 86/6/2
f 93/17/1 83/3/1 88/8/1
f 84/31/3 89/9/3 91/11/3
f 85/37/5 84/14/5 87/16/5
f 81/1/1 93/17/1 90/19/1
f 95/38/1 82/2/1 92/23/1
f 92/39/8 89/24/8 95/26/8
f 85/20/9 94/22/9 86/28/9
f 94/40/1 83/3/1 96/30/1
