# Blender v2.74 (sub 0) OBJ File: ''
# www.blender.org
mtllib untitled.mtl
o Cube
v 0.009556 0.601282 -1.697877
v 0.954893 0.601282 -0.752540
v 0.009556 -0.344055 -0.752540
v 0.009556 -0.344055 -0.102638
v 0.954892 0.601282 -0.102637
v 0.009556 0.601282 0.842699
v -0.640346 -0.344055 -0.102638
v -0.640347 0.601282 0.842699
v -1.585683 0.601282 -0.102638
v -1.585683 0.601282 -0.752540
v -0.640346 0.601282 -1.697877
v -0.640346 -0.344055 -0.752540
v 0.954893 1.251184 -0.752540
v 0.009557 1.251184 -1.697876
v 0.009556 2.196521 -0.752540
v 0.009556 2.196521 -0.102637
v 0.009556 1.251184 0.842699
v 0.954893 1.251184 -0.102637
v -0.640347 2.196521 -0.102638
v -1.585683 1.251184 -0.102638
v -0.640347 1.251184 0.842699
v -0.640346 1.251184 -1.697876
v -1.585683 1.251184 -0.752540
v -0.640347 2.196521 -0.752540
vn 0.000000 0.000000 -1.000000
vn -0.000000 -0.000000 1.000000
vn -1.000000 -0.000000 -0.000000
vn 0.000000 1.000000 0.000000
vn 1.000000 -0.000000 0.000000
vn 0.577400 -0.577400 -0.577400
vn 0.577400 -0.577400 0.577400
vn -0.577400 -0.577400 0.577400
vn -0.577400 -0.577400 -0.577400
vn 0.577400 0.577400 -0.577400
vn 0.577300 0.577400 0.577400
vn -0.577400 0.577400 0.577400
vn -0.577400 0.577400 -0.577400
vn 0.707100 -0.707100 0.000000
vn 0.000000 -0.707100 -0.707100
vn 0.707100 0.000000 -0.707100
vn -0.000000 -0.707100 0.707100
vn 0.707100 -0.000000 0.707100
vn -0.707100 -0.707100 -0.000000
vn -0.707100 -0.000000 0.707100
vn -0.707100 0.000000 -0.707100
vn 0.707100 0.707100 0.000000
vn 0.000000 0.707100 -0.707100
vn 0.000000 0.707100 0.707100
vn -0.707100 0.707100 -0.000000
vn 0.000000 -1.000000 -0.000000
usemtl Material
s off
f 14//1 1//1 11//1 22//1
f 6//2 17//2 21//2 8//2
f 9//3 20//3 23//3 10//3
f 15//4 24//4 19//4 16//4
f 2//5 13//5 18//5 5//5
f 1//6 2//6 3//6
f 4//7 5//7 6//7
f 7//8 8//8 9//8
f 10//9 11//9 12//9
f 13//10 14//10 15//10
f 16//11 17//11 18//11
f 19//12 20//12 21//12
f 22//13 23//13 24//13
f 2//14 5//14 4//14 3//14
f 3//15 12//15 11//15 1//15
f 1//16 14//16 13//16 2//16
f 6//17 8//17 7//17 4//17
f 5//18 18//18 17//18 6//18
f 9//19 10//19 12//19 7//19
f 8//20 21//20 20//20 9//20
f 10//21 23//21 22//21 11//21
f 15//22 16//22 18//22 13//22
f 14//23 22//23 24//23 15//23
f 16//24 19//24 21//24 17//24
f 19//25 24//25 23//25 20//25
f 3//26 4//26 7//26 12//26
