# Blender v2.74 (sub 0) OBJ File: ''
# www.blender.org
mtllib untitled.mtl
o Cube.001
v -0.135543 0.902720 -0.939855
v -0.135544 0.252818 -0.939856
v -0.785446 0.252818 -0.939856
v -0.785446 0.902720 -0.939855
v -0.135544 0.252818 1.600720
v -0.135544 0.902720 1.600720
v -0.785447 0.902720 1.600720
v -0.785447 0.252818 1.600720
v -1.730783 0.252818 0.655383
v -1.730783 0.902720 0.655383
v -1.730783 0.902720 0.005481
v -1.730783 0.252818 0.005481
v -0.135544 1.848057 0.005481
v -0.785447 1.848057 0.005481
v -0.785447 1.848057 0.655383
v -0.135544 1.848057 0.655384
v 0.809793 0.252818 0.005481
v 0.809793 0.902720 0.005481
v 0.809793 0.902720 0.655384
v 0.809792 0.252818 0.655384
v -0.135544 -0.692519 0.005481
v -0.135544 -0.692519 0.655383
v -0.785446 -0.692519 0.655383
v -0.785446 -0.692519 0.005481
vn 0.000000 0.000000 -1.000000
vn 0.000000 0.000000 1.000000
vn -1.000000 0.000000 0.000000
vn -0.000000 1.000000 0.000000
vn 1.000000 -0.000000 0.000000
vn 0.577400 -0.577400 -0.577400
vn 0.577400 -0.577400 0.577400
vn -0.577400 -0.577400 0.577300
vn -0.577400 -0.577400 -0.577400
vn 0.577400 0.577400 -0.577400
vn 0.577400 0.577400 0.577400
vn -0.577400 0.577300 0.577400
vn -0.577400 0.577300 -0.577400
vn 0.707100 -0.707100 0.000000
vn 0.000000 -0.707100 -0.707100
vn 0.707100 0.000000 -0.707100
vn 0.000000 -0.707100 0.707100
vn 0.707100 -0.000000 0.707100
vn -0.707100 -0.707100 -0.000000
vn -0.707100 0.000000 0.707100
vn -0.707100 0.000000 -0.707100
vn 0.707100 0.707100 0.000000
vn 0.000000 0.707100 -0.707100
vn -0.000000 0.707100 0.707100
vn -0.707100 0.707100 0.000000
vn 0.000000 -1.000000 -0.000000
usemtl Material.001
s 1
f 2//1 3//1 4//1
f 6//2 7//2 8//2
f 10//3 11//3 12//3
f 13//4 14//4 15//4
f 18//5 19//5 20//5
f 2//6 17//6 21//6
f 22//7 20//7 5//7
f 23//8 8//8 9//8
f 12//9 3//9 24//9
f 18//10 1//10 13//10
f 16//11 6//11 19//11
f 15//12 10//12 7//12
f 4//13 11//13 14//13
f 20//14 22//14 21//14
f 24//15 3//15 2//15
f 1//16 18//16 17//16
f 8//17 23//17 22//17
f 19//18 6//18 5//18
f 12//19 24//19 23//19
f 7//20 10//20 9//20
f 12//21 11//21 4//21
f 16//22 19//22 18//22
f 4//23 14//23 13//23
f 16//24 15//24 7//24
f 14//25 11//25 10//25
f 22//26 23//26 24//26
f 1//1 2//1 4//1
f 5//2 6//2 8//2
f 9//3 10//3 12//3
f 16//4 13//4 15//4
f 17//5 18//5 20//5
f 17//14 20//14 21//14
f 21//15 24//15 2//15
f 2//16 1//16 17//16
f 5//17 8//17 22//17
f 20//18 19//18 5//18
f 9//19 12//19 23//19
f 8//20 7//20 9//20
f 3//21 12//21 4//21
f 13//22 16//22 18//22
f 1//23 4//23 13//23
f 6//24 16//24 7//24
f 15//25 14//25 10//25
f 21//26 22//26 24//26
